<?xml version="1.0" encoding="UTF-8"?>
<svg id="Layer_2" data-name="Layer 2" xmlns="http://www.w3.org/2000/svg" viewBox="0 0 258.31 253.84">
  <defs>
    <style>
      .cls-1 {
        fill: #f5f5f7;
      }
    </style>
  </defs>
  <g id="Layer_1-2" data-name="Layer 1">
    <g>
      <path class="cls-1" d="M177.4,50.41c9.57,4.6,17.87,11.34,25.58,18.56,9.92,10.45,18.11,22.75,22.8,36.45,2.41-1.5,4.83-2.98,7.25-4.48-1.19-2.53-2.37-5.07-3.54-7.58l-.48-.82c-.79-1.34-1.47-2.73-2.04-4.18-3.77-9.59-11.3-17.41-18-25.11-14.46-14.38-32.94-24.83-52.97-29.01.75,2.8,1.31,5.67,2.45,8.35,6.24,2.77,12.92,4.52,18.94,7.82Z"/>
      <path class="cls-1" d="M120.66,15.86c-.76,1.34-1.49,2.71-2.19,4.09-2.35,4.63-4.96,9.19-6.97,13.96-2.32,5.5-3.3,11.48-2.76,17.42.22,2.49.73,4.91,2.13,7.06,4.89,8.95,16.17,14.05,25.98,10.58,3.35-.84,6.1-2.74,8.55-5.01,4.18-3.88,6.95-9.07,7.65-14.72.02-.15.04-.31.05-.46.27-2.62-.02-5.26-.8-7.78-.03-.09-.06-.19-.09-.28-.54-1.75-1.14-3.47-1.8-5.18l-1.24-3.16c-.69-1.74-.66-1.83-2.9-6.84-3.71-9.7-9.83-16.83-15.38-25.54"/>
      <path class="cls-1" d="M64.93,62.79c10.86-8.9,23.27-16.2,37.12-19.29,1.07-3.07,2.04-6.18,2.85-9.34-17.2,3.09-32.98,11.93-46.18,23.18-13.24,11.82-23.85,26.57-30.47,43.06,2.39,1.62,4.76,3.27,7.12,4.92,6.74-16.04,16.49-30.94,29.57-42.53Z"/>
      <path class="cls-1" d="M213.64,117.92c-3.79,2.49-7.57,5.02-11.33,7.55l-9.71,22.19c-14.56,9.88-23.73,19.05-39.47,27.18-2.29-3.09-1.1-7.2-1.34-10.75,1.34-2.87,1-6.2,1.47-9.26-4.65,5.38-9.21,10.85-13.73,16.36l-.11.4c-10.94,11.55-22.41,22.64-32.96,34.57-2.37,1.94-4.3,4.35-6.36,6.63,6.28-1.86,12.41-4.24,18.45-6.77l1.29.8c-9.81,16.55-22.38,31.14-33.17,47.03,17.09-12.86,35.84-23.31,52.87-36.26l.24.18c16.81-11.76,33.77-23.69,47.12-39.44.65-.25,1.98-.76,2.64-1.02-.3,3.44-.72,6.88-1.26,10.31-3.84,8.65-11.66,14.15-17.6,21.19-7.68,6.12-15.88,11.47-24.55,16.07l-.3-.08c-5.7,2.64-11.69,4.62-17.32,7.42,21-.08,42.06-6.26,59.67-17.76,12.12-7.66,22.17-19.16,25.5-33.39l.18.06c2.23-11.55,3.76-23.23,4.87-34.93,3.22-10.2,7.1-20.22,13.4-28.98,8.55-8.83,17.28-17.63,26.16-26.2-15.56,7.79-29.98,17.63-44.67,26.92Z"/>
      <path class="cls-1" d="M60.34,100.13c-4.54.43-7.76-5.34-11.71-7.55,7.47,10.23,16.54,19.15,24.26,29.17-4.32-8.38-7.46-17.28-11.18-25.92-.33,1.07-1.02,3.23-1.37,4.3Z"/>
      <path class="cls-1" d="M195.89,122.45c7.26-6.29,12.63-14.38,18.92-21.59-1.1-.18-3.28-.49-4.38-.67-.41-1.32-1.24-3.97-1.66-5.29-2.55,9.91-7.25,19.05-12.89,27.54Z"/>
      <path class="cls-1" d="M84.27,99.51c-.46,4.33-.94,8.67-1.58,12.97-.92,12.3-6.87,23.24-9.24,35.19,9.16-8.09,17.6-16.93,26.49-25.3l.09-.08c1.05-1.01,1.06-2.68.02-3.69l-.03-.03c-5.26-6.34-10.39-12.81-15.75-19.05Z"/>
      <path class="cls-1" d="M44.91,153.42c.62,9.86,2.99,19.53,5.32,29.1,2.47-5.61,5.05-11.18,8.32-16.38,3.19-4.59,6.71-8.92,10.48-13.03,1.29-1.55,2.6-3.09,3.89-4.64-8.55-1.08-14.74-7.3-19.77-13.73,1.16-3.81,3.46-7.06,6.32-9.78-4.29-2.37-8.43-4.99-12.44-7.79-15.75-9.02-30.46-19.94-47.03-27.46,6.16,4.4,11.6,9.7,17.22,14.74l.45.11c7.41,7.25,14.74,14.88,19.29,24.33,4.24,7.61,5.53,16.33,7.95,24.53Z"/>
      <path class="cls-1" d="M231.14,125.98c1.02,11.71,1.05,23.61-1.69,35.11-3.12,10.67-7.17,21.14-13.3,30.47-6.55,9.59-14.1,18.57-23.35,25.68-10.69,7.84-22.57,14.26-35.48,17.49-12.31,3.5-25.3,3.03-37.95,2.37-3.06,2.39-6.21,4.65-9.38,6.88,5.64.97,11.36,1.56,17.06,1.96,24.74,1.62,49.57-6.74,69.53-21.14,11.49-8.92,21.66-19.69,28.91-32.35l.27-.03c5.75-10.39,10.23-21.52,12.38-33.25,3.12-13.33,1.9-27.46.43-41-2.64,2.45-5.1,5.08-7.44,7.81Z"/>
      <path class="cls-1" d="M187.62,145.58c-1.51-3.78-2.93-7.57-4.27-11.41-1.05-4.67-2.07-9.35-3.19-14-1.45-7.04-2.1-14.23-2.98-21.35-7.28,8.62-13.03,18.48-20.98,26.56-3.68,2.37-3.65,6.93-4.87,10.69-2.15,8.12-6.24,15.52-9.49,23.21,5.56-4.01,9.94-9.62,16.14-12.74.1,7.81-2.26,15.31-3.15,23,11.69-6.82,21.78-16.11,32.8-23.96Z"/>
      <path class="cls-1" d="M76.53,205.22c6.66-8.87,14.91-16.38,23.5-23.34,11.12-9.46,23.31-17.92,32.82-29.12,3.35-2.5,5.83-5.97,8.59-9.08-5.21,1.34-10.16,3.41-15.23,5.19l-4.79,1.04c7.31-7.33,13.67-15.52,21.06-22.75,3.11-1.83,5-4.99,7.03-7.84-4.14,1.43-8.22,3.04-12.09,5.08l-4.11,1.19c6.4-6.99,12.11-14.62,16.97-22.76l.3-.13c10.72-15.09,17.79-34.81,11.95-53.17-4.49,16.11-14.51,29.71-25.52,41.98-17.06,19.61-37.28,36.07-55.17,54.85l-.67.16c-2.13,1.86-4.16,3.84-6.1,5.88-5.85,6.42-11.41,13.17-15.74,20.71-5.85,9.84-7.92,21.74-5.88,33.01,1.27,3.12,2.45,6.31,4.13,9.26l.33-.33.19,1.61c4.35,8.7,11.87,15.52,20.17,20.42-2.66-3.76-6.23-7.25-6.95-12.01-1.47-7.04,1.66-13.95,5.23-19.83Z"/>
      <path class="cls-1" d="M33.48,167.94c-3.84-13.51-5.69-27.77-3.11-41.69-2.31-3.17-4.72-6.28-7.09-9.4-3.98,17.95-3.15,36.85,2.42,54.35,5.24,15.1,13.14,29.65,24.83,40.72-1.72-5.45-1.8-11.31-3.49-16.73-5.59-8.52-10.16-17.63-13.57-27.26Z"/>
      <path class="cls-1" d="M96.25,232.56c-6.9-2.98-13.78-6.04-20.17-10.05,1.61,4.25,2.96,8.9,6.39,12.11,2.56,2.04,5.69,3.17,8.63,4.56,1.69-2.23,3.41-4.43,5.15-6.61Z"/>
    </g>
  </g>
</svg>